# xmcd CD database file
#
# Track frame offsets:
#	150
#	19480
#	33253
#	45420
#	63583
#	79608
#	104040
#	117478
#	131423
#	147368
#	168643
#	192165
#
# Disc length: 2803 seconds
#
# Revision: 0
# Processed by: cddbd v1.5.1PL0 Copyright (c) Steve Scherf et al.
# Submitted via: CDex 1.51
#
DISCID=aa0af10c
DTITLE=FOOT STAMP - 空洞
DYEAR=2004
DGENRE=不明
TTITLE0=過ぎ去りし、明け方
TTITLE1=眼差し
TTITLE2=猛獣
TTITLE3=大地の掟
TTITLE4=孤独を突き抜けて
TTITLE5=吹雪
TTITLE6=旅行
TTITLE7=ゴミ
TTITLE8=あるがままに
TTITLE9=天秤にかかる夢
TTITLE10=言葉より強い想い
TTITLE11=路上の詩
EXTD=YEAR: 2004
EXTT0=
EXTT1=
EXTT2=
EXTT3=
EXTT4=
EXTT5=
EXTT6=
EXTT7=
EXTT8=
EXTT9=
EXTT10=
EXTT11=
PLAYORDER=
